<?xml version="1.0" encoding="UTF-8" standalone="no"?>
<!-- Created with Inkscape (http://www.inkscape.org/) -->

<svg
   xmlns:dc="http://purl.org/dc/elements/1.1/"
   xmlns:cc="http://creativecommons.org/ns#"
   xmlns:rdf="http://www.w3.org/1999/02/22-rdf-syntax-ns#"
   xmlns:svg="http://www.w3.org/2000/svg"
   xmlns="http://www.w3.org/2000/svg"
   xmlns:xlink="http://www.w3.org/1999/xlink"
   xmlns:sodipodi="http://sodipodi.sourceforge.net/DTD/sodipodi-0.dtd"
   xmlns:inkscape="http://www.inkscape.org/namespaces/inkscape"
   width="218.1875"
   height="247.3125"
   id="svg16251"
   version="1.1"
   inkscape:version="0.48.4 r9939"
   sodipodi:docname="katskade.svg">
  <defs
     id="defs16253">
    <linearGradient
       id="linearGradient4070-8-2-8-8-7-0-6-5">
      <stop
         style="stop-color:#a3a3a3;stop-opacity:1;"
         offset="0"
         id="stop4072-1-2-6-4-1-4-7-9" />
      <stop
         style="stop-color:#b0b0b0;stop-opacity:1;"
         offset="0.14285725"
         id="stop4074-8-0-7-0-4-8-7-1" />
      <stop
         id="stop4076-6-1-0-3-7-5-9-8"
         offset="0.32142863"
         style="stop-color:#d1d1d1;stop-opacity:1;" />
      <stop
         style="stop-color:#bdbdbd;stop-opacity:1;"
         offset="0.5"
         id="stop4078-0-2-8-7-6-7-6-1" />
      <stop
         id="stop4080-2-7-1-8-8-3-4-7"
         offset="0.75"
         style="stop-color:#e5e5e5;stop-opacity:1;" />
      <stop
         style="stop-color:#cccccc;stop-opacity:1;"
         offset="0.875"
         id="stop4082-4-7-8-3-2-3-1-8" />
      <stop
         id="stop4084-9-0-3-1-3-0-9-6"
         offset="1"
         style="stop-color:#cccccc;stop-opacity:1;" />
    </linearGradient>
    <linearGradient
       inkscape:collect="always"
       xlink:href="#linearGradient4070-8-2-8-8-7-0-6-5"
       id="linearGradient7649"
       x1="200.65964"
       y1="460.58371"
       x2="414.06921"
       y2="456.298"
       gradientUnits="userSpaceOnUse" />
    <linearGradient
       id="linearGradient16222">
      <stop
         style="stop-color:#a3a3a3;stop-opacity:1;"
         offset="0"
         id="stop16224" />
      <stop
         style="stop-color:#b0b0b0;stop-opacity:1;"
         offset="0.14285725"
         id="stop16226" />
      <stop
         id="stop16228"
         offset="0.32142863"
         style="stop-color:#d1d1d1;stop-opacity:1;" />
      <stop
         style="stop-color:#bdbdbd;stop-opacity:1;"
         offset="0.5"
         id="stop16230" />
      <stop
         id="stop16232"
         offset="0.75"
         style="stop-color:#e5e5e5;stop-opacity:1;" />
      <stop
         style="stop-color:#cccccc;stop-opacity:1;"
         offset="0.875"
         id="stop16234" />
      <stop
         id="stop16236"
         offset="1"
         style="stop-color:#cccccc;stop-opacity:1;" />
    </linearGradient>
    <linearGradient
       inkscape:collect="always"
       xlink:href="#linearGradient16222"
       id="linearGradient3829"
       x1="247.14578"
       y1="545.12653"
       x2="460.93506"
       y2="545.12653"
       gradientUnits="userSpaceOnUse"
       gradientTransform="translate(0,1.3e-6)" />
    <linearGradient
       inkscape:collect="always"
       xlink:href="#linearGradient16222"
       id="linearGradient3831"
       x1="247.08347"
       y1="463.91577"
       x2="460.87274"
       y2="463.91577"
       gradientUnits="userSpaceOnUse"
       gradientTransform="translate(0,1.3e-6)" />
    <linearGradient
       id="linearGradient21651">
      <stop
         id="stop21653"
         offset="0"
         style="stop-color:#cc992d;stop-opacity:1;" />
      <stop
         id="stop21655"
         offset="0.14285725"
         style="stop-color:#e1a832;stop-opacity:1;" />
      <stop
         style="stop-color:#e5cf5c;stop-opacity:1;"
         offset="0.32142863"
         id="stop21657" />
      <stop
         id="stop21659"
         offset="0.5"
         style="stop-color:#e5c547;stop-opacity:1;" />
      <stop
         style="stop-color:#ffffa3;stop-opacity:1;"
         offset="0.75"
         id="stop21661" />
      <stop
         id="stop21663"
         offset="0.875"
         style="stop-color:#ffd94d;stop-opacity:1;" />
      <stop
         style="stop-color:#ffdb4e;stop-opacity:1;"
         offset="1"
         id="stop21665" />
    </linearGradient>
    <linearGradient
       gradientUnits="userSpaceOnUse"
       y2="174.06992"
       x2="30"
       y1="174.06992"
       x1="0"
       id="linearGradient4379"
       xlink:href="#linearGradient21651"
       inkscape:collect="always" />
    <linearGradient
       id="linearGradient4070-8-2-8-8-7-0-6-5-4">
      <stop
         style="stop-color:#a3a3a3;stop-opacity:1;"
         offset="0"
         id="stop4072-1-2-6-4-1-4-7-9-6" />
      <stop
         style="stop-color:#b0b0b0;stop-opacity:1;"
         offset="0.14285725"
         id="stop4074-8-0-7-0-4-8-7-1-0" />
      <stop
         id="stop4076-6-1-0-3-7-5-9-8-3"
         offset="0.32142863"
         style="stop-color:#d1d1d1;stop-opacity:1;" />
      <stop
         style="stop-color:#bdbdbd;stop-opacity:1;"
         offset="0.5"
         id="stop4078-0-2-8-7-6-7-6-1-6" />
      <stop
         id="stop4080-2-7-1-8-8-3-4-7-2"
         offset="0.75"
         style="stop-color:#e5e5e5;stop-opacity:1;" />
      <stop
         style="stop-color:#cccccc;stop-opacity:1;"
         offset="0.875"
         id="stop4082-4-7-8-3-2-3-1-8-4" />
      <stop
         id="stop4084-9-0-3-1-3-0-9-6-5"
         offset="1"
         style="stop-color:#cccccc;stop-opacity:1;" />
    </linearGradient>
    <linearGradient
       inkscape:collect="always"
       xlink:href="#linearGradient21651"
       id="linearGradient4143"
       x1="265.1925"
       y1="508.20319"
       x2="440.55396"
       y2="508.20319"
       gradientUnits="userSpaceOnUse" />
  </defs>
  <sodipodi:namedview
     id="base"
     pagecolor="#ffffff"
     bordercolor="#666666"
     borderopacity="1.0"
     inkscape:pageopacity="0.0"
     inkscape:pageshadow="2"
     inkscape:zoom="0.35"
     inkscape:cx="-729.82312"
     inkscape:cy="-138.12642"
     inkscape:document-units="px"
     inkscape:current-layer="layer1"
     showgrid="false"
     fit-margin-top="0"
     fit-margin-left="0"
     fit-margin-right="0"
     fit-margin-bottom="0"
     inkscape:window-width="1600"
     inkscape:window-height="837"
     inkscape:window-x="-8"
     inkscape:window-y="-8"
     inkscape:window-maximized="1" />
  <metadata
     id="metadata16256">
    <rdf:RDF>
      <cc:Work
         rdf:about="">
        <dc:format>image/svg+xml</dc:format>
        <dc:type
           rdf:resource="http://purl.org/dc/dcmitype/StillImage" />
        <dc:title></dc:title>
      </cc:Work>
    </rdf:RDF>
  </metadata>
  <g
     inkscape:label="Laag 1"
     inkscape:groupmode="layer"
     id="layer1"
     transform="translate(-245.46875,-388.84375)">
    <path
       sodipodi:nodetypes="cccccccc"
       id="path2830-4"
       d="m 354.14974,390.20566 -107.20503,0 0,205.36052 c -0.3532,11.6945 10.4634,21.516 23.8687,20.4508 l 30.1696,0 27.98,0 c 10.418,0.5978 20.42063,2.2983 25.18673,17.8945 l 0,-243.70582 z"
       style="fill:#1a1a1a;fill-opacity:1;stroke:#000000;stroke-width:1.19615089999999990px;stroke-linecap:butt;stroke-linejoin:miter;stroke-opacity:0"
       inkscape:connector-curvature="0" />
    <path
       sodipodi:nodetypes="cccccccc"
       id="path2830-5-4"
       d="m 354.10844,390.15726 107.2051,0 0,205.36052 c 0.3531,11.6945 -10.4635,21.516 -23.8688,20.4508 l -30.1695,0 -27.98,0 c -10.4181,0.5978 -20.4206,2.2983 -25.1868,17.8945 -20.22523,-86.2372 -14.17713,-165.97663 0,-243.70582 z"
       style="fill:#1a1a1a;fill-opacity:1;stroke:#000000;stroke-width:1.19615089999999990px;stroke-linecap:butt;stroke-linejoin:miter;stroke-opacity:0"
       inkscape:connector-curvature="0" />
    <path
       style="fill:url(#linearGradient3831);fill-opacity:1"
       d="m 386.33793,486.95706 c -5.22863,-0.21621 -10.19474,-0.89378 -15.43111,-2.10535 -6.80766,-1.57512 -7.74994,-1.77771 -9.73806,-2.09356 -4.03365,-0.64076 -6.68128,-0.85331 -10.6432,-0.85448 -6.01406,-0.002 -10.33456,0.66704 -16.54852,2.56157 -6.10686,1.8619 -13.15508,2.69323 -20.10809,2.3718 -6.53795,-0.30224 -14.2629,-1.40757 -18.7455,-2.68222 -9.63138,-2.73868 -17.83474,-3.23706 -27.14057,-1.64892 -2.55323,0.43572 -3.96301,0.76714 -7.79047,1.83135 -3.91065,1.08733 -7.6338,1.84059 -11.0115,2.22781 -0.7828,0.0897 -1.57495,0.18546 -1.76035,0.21268 l -0.33709,0.0494 0,-13.35574 0,-13.35577 0.33709,-0.046 c 0.1854,-0.0253 1.2454,-0.16556 2.35556,-0.31172 2.8783,-0.37897 4.93407,-0.81822 9.36758,-2.00164 4.68049,-1.24934 6.35385,-1.63079 9.21371,-2.10034 9.22527,-1.5146 17.76091,-0.99918 26.72118,1.61359 4.39557,1.28171 7.26773,1.93504 10.9122,2.48218 2.92806,0.43961 4.68727,0.57464 8.23152,0.6318 4.4529,0.0719 7.46155,-0.13542 11.22304,-0.77312 3.78124,-0.64103 5.94965,-1.19614 10.77895,-2.75928 4.95332,-1.60329 6.23724,-1.91893 9.78424,-2.40534 2.90811,-0.39881 4.82873,-0.49185 8.84431,-0.42854 6.85261,0.10801 12.34609,0.881 21.52229,3.02836 5.036,1.1785 8.07892,1.70584 11.98531,2.0771 2.10381,0.19993 8.29792,0.17593 10.44951,-0.0406 4.05129,-0.4075 7.26599,-1.02069 11.79423,-2.24966 4.13863,-1.12324 5.93612,-1.55392 8.26663,-1.98068 3.99556,-0.7317 7.66032,-1.06615 11.68455,-1.06632 6.55882,0 11.79824,0.76546 18.56963,2.71407 3.78547,1.08935 6.16856,1.65184 9.12486,2.15377 l 2.54688,0.43244 0.038,13.17872 0.038,13.17871 -0.63728,-0.066 c -3.09956,-0.32072 -9.22398,-1.42636 -11.26473,-2.03366 -9.00853,-2.68083 -18.06526,-3.27681 -27.05131,-1.78011 -2.13364,0.35537 -5.3718,1.11521 -8.07856,1.89565 -2.63352,0.75931 -6.68938,1.63615 -9.22533,1.99443 -0.98878,0.1397 -2.80907,0.4131 -4.04505,0.6076 -4.95763,0.78009 -9.74425,1.08137 -14.23257,0.89575 z"
       id="path16124"
       inkscape:connector-curvature="0" />
    <path
       style="fill:url(#linearGradient3829);fill-opacity:1"
       d="m 386.40025,557.20388 c -5.22863,-0.2162 -10.19474,-0.89377 -15.43111,-2.10534 -6.80766,-1.57513 -7.74994,-1.77772 -9.73806,-2.09356 -4.03365,-0.64077 -6.68128,-0.85331 -10.6432,-0.85449 -6.01406,-0.002 -10.33456,0.66704 -16.54852,2.56157 -6.10686,1.86189 -13.15508,2.69323 -20.10809,2.3718 -6.53795,-0.30225 -14.2629,-1.40757 -18.7455,-2.68222 -9.63138,-2.73868 -17.83474,-3.23706 -27.14057,-1.64892 -2.55323,0.43572 -3.96301,0.76714 -7.79047,1.83135 -3.91065,1.08733 -7.6338,1.84059 -11.0115,2.22781 -0.7828,0.0897 -1.57495,0.18546 -1.76035,0.21267 l -0.33709,0.0494 0,-13.35574 0,-13.35576 0.33709,-0.0461 c 0.1854,-0.0253 1.2454,-0.16555 2.35556,-0.31173 2.8783,-0.37896 4.93407,-0.81821 9.36758,-2.00163 4.68049,-1.24934 6.35385,-1.6308 9.21371,-2.10034 9.22527,-1.5146 17.76091,-0.99918 26.72118,1.61358 4.39557,1.28171 7.26773,1.93506 10.9122,2.48219 2.92806,0.4396 4.68727,0.57463 8.23152,0.6318 4.4529,0.0719 7.46155,-0.13542 11.22304,-0.77312 3.78124,-0.64103 5.94965,-1.19614 10.77895,-2.75927 4.95332,-1.6033 6.23724,-1.91893 9.78424,-2.40535 2.90811,-0.3988 4.82873,-0.49185 8.84431,-0.42853 6.85261,0.10801 12.34609,0.881 21.52229,3.02834 5.036,1.17851 8.07892,1.70586 11.98531,2.07711 2.10381,0.19993 8.29792,0.17592 10.44951,-0.0406 4.05129,-0.40749 7.26599,-1.0207 11.79423,-2.24966 4.13863,-1.12324 5.93612,-1.55392 8.26663,-1.98068 3.99556,-0.7317 7.66032,-1.06614 11.68455,-1.06631 6.55882,0 11.79824,0.76545 18.56963,2.71405 3.78547,1.08936 6.16856,1.65185 9.12486,2.15379 l 2.54688,0.43243 0.038,13.17872 0.038,13.17871 -0.63728,-0.066 c -3.09956,-0.32072 -9.22398,-1.42636 -11.26473,-2.03366 -9.00853,-2.68082 -18.06526,-3.27681 -27.05131,-1.7801 -2.13364,0.35536 -5.3718,1.1152 -8.07856,1.89565 -2.63352,0.7593 -6.68938,1.63614 -9.22533,1.99441 -0.98878,0.1397 -2.80907,0.41312 -4.04505,0.6076 -4.95763,0.7801 -9.74425,1.08138 -14.23257,0.89577 z"
       id="path16124-4"
       inkscape:connector-curvature="0" />
    <path
       sodipodi:nodetypes="ccccccccccc"
       id="path4051-6-4-2-4-2-2-3"
       d="m 461.55621,390.22229 -5.0117,4.6867 0,200.67372 c -3.012,7.9662 -8.1822,13.6113 -16.9959,15.3382 l -66.2404,0 c -9.0022,1.3536 -17.0579,3.7097 -19.175,12.3557 l 0,11.2905 c 3.3606,-13.5249 11.6481,-17.4157 21.3539,-18.5335 l 64.7152,0 c 9.965,0.2476 22.0341,-9.2129 21.1359,-20.4509 l 0.218,-205.36042 z"
       style="fill:#000000;fill-opacity:0.23584905;stroke:#000000;stroke-width:1.19615089999999990px;stroke-linecap:butt;stroke-linejoin:miter;stroke-opacity:0"
       inkscape:connector-curvature="0" />
    <path
       sodipodi:nodetypes="ccccccccccc"
       id="path4051-2-1-1-1-3-9"
       d="m 246.9591,390.22229 5.0117,4.6867 0,200.67362 c 3.012,7.9663 8.18206,13.6114 16.99588,15.3382 l 66.24052,0 c 9.00207,1.3537 17.05793,3.7098 19.17493,12.3558 l 0,11.2904 c -3.3605,-13.5248 -11.64814,-17.4156 -21.35383,-18.5334 l -64.71524,0 c -9.9651,0.2476 -22.03426,-9.2129 -21.13596,-20.451 l -0.218,-205.36032 z"
       style="fill:#ffffff;fill-opacity:0.0754717;stroke:#000000;stroke-width:1.19615089999999990px;stroke-linecap:butt;stroke-linejoin:miter;stroke-opacity:0"
       inkscape:connector-curvature="0" />
    <path
       sodipodi:nodetypes="ccccc"
       id="path25964-5-2-2-0-3-2"
       d="m 246.9591,390.22229 5.6305,5.4487 200.69573,0 8.3498,-5.4487 -214.67603,0 z"
       style="fill:#ffffff;fill-opacity:0.16981132;stroke:#000000;stroke-width:1.19615089999999990px;stroke-linecap:butt;stroke-linejoin:miter;stroke-opacity:0"
       inkscape:connector-curvature="0" />
    <path
       style="fill:url(#linearGradient4143);fill-opacity:1.0"
       d="m 350.67048,611.92409 c -2.31982,-1.00194 -3.24273,-2.65866 -3.19953,-5.74352 0.0373,-2.66216 0.60862,-4.56534 2.34643,-7.8161 0.57545,-1.07647 0.82538,-1.78825 0.55537,-1.58172 -0.27002,0.20652 -1.59521,2.41378 -2.94492,4.90501 -2.68265,4.95161 -3.80728,6.09587 -6.29325,6.40317 -2.78483,0.34428 -6.13676,-1.45845 -6.9537,-3.73977 -0.59424,-1.65938 0.21729,-3.11448 3.52806,-6.32595 5.15859,-5.00388 5.52571,-5.47842 2.27989,-2.94717 -3.3489,2.61166 -6.10402,4.07186 -7.68281,4.07186 -3.71584,0 -4.77527,-3.30282 -2.4536,-7.64918 0.858,-1.60621 2.10693,-3.07328 4.4823,-5.26502 3.07195,-2.83453 8.20191,-6.50382 9.09286,-6.50382 0.21557,0 0.70031,0.52766 1.07716,1.17259 2.45095,4.19443 10.66773,5.64235 15.45397,2.72322 1.56938,-0.95717 3.64239,-3.5928 3.64239,-4.63094 0,-0.33222 0.0409,-0.60241 0.0908,-0.60042 0.43589,0.0174 3.72409,1.0903 5.17654,1.68906 4.49933,1.85479 8.97251,5.63708 10.66853,9.02071 1.20637,2.4068 1.42901,5.40806 0.52153,7.03066 -2.20803,3.94796 -8.68706,2.61473 -16.63019,-3.42212 l -1.44416,-1.09759 1.20364,1.38976 c 0.66203,0.76437 2.78313,2.56942 4.71359,4.01121 6.14937,4.59278 7.3032,6.00363 6.69971,8.19207 -0.57628,2.08983 -3.06178,3.64883 -5.81722,3.64883 -3.70434,0 -6.59,-2.35919 -10.08811,-8.24753 -1.13386,-1.90864 -2.13582,-3.47025 -2.22659,-3.47025 -0.0907,0 0.65946,1.44794 1.66713,3.21765 1.61631,2.83863 1.83213,3.45715 1.83213,5.25099 0,3.84912 -2.29173,6.42947 -6.02734,6.78646 -1.30122,0.12434 -2.18483,-0.003 -3.27062,-0.47215 z m -0.64552,-28.33143 c -1.76206,-0.57886 -3.86497,-2.12539 -4.61514,-3.39409 -0.44152,-0.74663 -0.52485,-1.54486 -0.36328,-3.47983 l 0.20965,-2.51095 8.39772,-0.0898 8.39775,-0.0898 0.19014,2.60072 c 0.16172,2.21176 0.0778,2.78777 -0.56077,3.85158 -0.84627,1.40962 -2.80275,2.78884 -4.64792,3.27655 -1.75486,0.46384 -5.35263,0.37941 -7.00815,-0.16446 z m -4.95041,-12.39801 0,-1.84136 8.3076,0 8.30756,0 0.22515,1.25548 c 0.4745,2.64558 1.22141,2.42725 -8.30356,2.42725 l -8.53675,0 0,-1.84137 z M 287.47893,447.35238 c -4.22434,-1.69581 -4.56371,-7.21748 -0.86094,-14.0089 0.57723,-1.05879 0.98231,-1.92507 0.9001,-1.92507 -0.21611,0 -2.02455,2.98418 -4.25737,7.02517 -1.61816,2.92861 -2.17992,3.63813 -3.39235,4.28467 -3.58547,1.91194 -9.26054,-0.60785 -9.26054,-4.11177 0,-1.44781 0.93624,-2.67461 5.15095,-6.74946 3.92686,-3.79658 3.89857,-3.88067 -0.22123,-0.65756 -4.04725,3.16635 -7.02755,4.00238 -9.04753,2.53801 -3.88164,-2.81401 1.32967,-11.20585 10.52712,-16.95203 l 3.12009,-1.94929 0.59211,0.82315 c 1.35357,1.88176 2.39237,2.72535 4.57614,3.71614 5.43165,2.46442 11.85001,0.82275 14.27597,-3.65148 l 1.0647,-1.96369 1.96215,0.56606 c 6.11052,1.76286 11.58784,5.9328 13.77299,10.48551 2.48289,5.17299 0.16744,9.36367 -4.87459,8.82237 -2.49574,-0.26794 -7.09233,-2.41834 -10.14538,-4.7463 -1.36541,-1.04112 -2.31764,-1.61556 -2.11608,-1.27649 0.49209,0.82775 3.20583,3.18561 6.95989,6.04721 4.3812,3.33964 4.79838,3.81612 4.99533,5.70542 0.14659,1.40579 0.0356,1.76212 -0.85254,2.7348 -1.97071,2.15847 -5.12121,2.61857 -8.37368,1.22288 -2.21824,-0.9519 -3.89718,-2.85503 -6.84465,-7.75863 -1.09681,-1.82473 -1.99596,-3.19023 -1.9981,-3.03444 -0.004,0.1558 0.73786,1.53741 1.64447,3.07026 1.83452,3.10171 2.30165,5.20393 1.65061,7.42834 -1.05111,3.59141 -5.4572,5.71629 -8.94764,4.31512 z M 410.644,446.6811 c -1.33597,-0.54724 -2.54784,-1.72638 -3.06356,-2.98082 -0.93886,-2.2837 -0.0411,-6.83845 2.17839,-11.05183 1.70346,-3.23379 -0.57492,0.19163 -2.7951,4.2023 -2.6876,4.85503 -3.57589,5.66249 -6.45788,5.87034 -3.32509,0.23981 -6.7537,-2.19581 -6.7537,-4.79768 0,-1.27159 0.77833,-2.24526 5.80127,-7.25732 1.89201,-1.88793 3.0363,-3.11667 2.54286,-2.73055 -6.40474,5.01161 -7.82081,5.82644 -10.12573,5.82644 -1.00676,0 -1.75752,-0.24615 -2.4665,-0.80869 -0.90722,-0.71977 -1.01663,-1.02341 -0.99539,-2.76205 0.0369,-3.01943 1.63924,-5.58605 5.92508,-9.49052 1.9228,-1.75167 4.70341,-3.9362 6.17917,-4.8545 2.52157,-1.56908 2.70756,-1.63125 3.08775,-1.0321 3.11682,4.91185 10.33961,6.60696 15.73505,3.69284 1.76114,-0.9512 3.57022,-3.01924 3.9181,-4.47894 l 0.22562,-0.94675 1.65923,0.46021 c 9.70582,2.69208 17.06413,10.90758 14.95122,16.69292 -1.4287,3.91192 -6.80961,3.72195 -13.58556,-0.47963 -0.98613,-0.61147 -2.32423,-1.57145 -2.97357,-2.13329 -0.64933,-0.56183 -1.18061,-0.87426 -1.18061,-0.69426 0,0.45695 3.57306,3.59569 7.38933,6.49114 3.52786,2.67664 4.59501,3.97681 4.59707,5.60086 0.003,1.59817 -0.61685,2.56345 -2.28121,3.55806 -1.131,0.67587 -1.95396,0.8937 -3.37639,0.8937 -4.31355,0 -6.50472,-1.80801 -10.6508,-8.78832 -0.84763,-1.42706 -1.61702,-2.59466 -1.70976,-2.59466 -0.0927,0 0.56566,1.28295 1.46312,2.851 1.83848,3.21224 2.21271,4.54221 1.87025,6.64683 -0.67009,4.1183 -5.24481,6.6776 -9.10775,5.09527 z M 285.64782,418.35786 c -2.41906,-1.13582 -4.30037,-3.10541 -3.98837,-4.17548 0.10833,-0.37147 0.19918,-1.61702 0.2019,-2.76787 l 0.006,-2.09246 8.49576,0 8.49573,0 0.16427,2.42725 c 0.19391,2.86516 -0.41136,4.31157 -2.45339,5.86286 -1.65961,1.26075 -3.46483,1.7537 -6.42221,1.7537 -1.89751,0 -2.76659,-0.19472 -4.49868,-1.008 z m 125.5944,0.32294 c -2.23223,-0.41811 -4.64634,-1.81719 -5.63771,-3.26727 -0.75505,-1.10441 -0.82788,-1.53361 -0.67963,-4.0051 l 0.16603,-2.76812 8.40717,0.0898 8.40716,0.0898 0.22789,2.34356 c 0.26737,2.74966 -0.12372,3.8601 -1.91009,5.42343 -2.14594,1.87799 -5.70435,2.70767 -8.98082,2.09395 z m -129.37589,-12.20449 0,-1.84136 8.35511,0 8.35511,0 0,1.84136 0,1.84136 -8.35511,0 -8.35511,0 0,-1.84136 z m 123.14705,-0.66958 0,-1.84137 8.35511,0 8.35512,0 0,1.84137 0,1.84136 -8.35512,0 -8.35511,0 0,-1.84136 z"
       id="path4109"
       inkscape:connector-curvature="0" />
    <path
       style="fill:#000000;fill-opacity:0.22169812"
       d="m 351.15927,612.25215 c -0.94391,-0.37182 -0.84441,-0.40356 1.27143,-0.40537 4.2165,-0.004 6.61038,-2.36127 6.62197,-6.52183 0.006,-1.86498 -0.18929,-2.53115 -1.34288,-4.59972 -1.55499,-2.78844 -1.74393,-3.54219 -0.40072,-1.59863 1.71981,2.48847 3.04715,5.35013 3.04744,6.57009 3.7e-4,1.58542 -0.90685,3.91651 -1.91913,4.93121 -1.76231,1.7665 -5.05281,2.50084 -7.27811,1.62425 z m 15.19141,-3.71708 c -1.04605,-0.42013 -1.01496,-0.43141 0.77499,-0.28082 2.44125,0.20536 4.19899,-0.36148 5.564,-1.79429 0.84619,-0.88821 1.10796,-1.48431 1.10796,-2.52305 0,-1.22085 -0.25102,-1.60373 -2.45205,-3.74013 -2.37804,-2.30823 -2.3954,-2.33731 -0.57483,-0.96376 3.23485,2.4406 4.11667,3.56525 4.11667,5.25027 0,1.16533 -0.22987,1.72457 -1.07236,2.60889 -1.67047,1.75345 -5.05996,2.40867 -7.46438,1.44289 z m -28.0444,-0.57192 c -1.65638,-0.4415 -1.81756,-0.9388 -0.17316,-0.5343 1.89849,0.46703 3.73661,0.0677 5.02287,-1.09133 0.6003,-0.54093 2.19572,-2.87304 3.54536,-5.18252 2.61915,-4.48181 3.74963,-5.84764 2.1833,-2.63789 -0.52299,1.07177 -1.24368,2.71508 -1.60149,3.65181 -0.92273,2.41548 -1.60491,3.52519 -2.7868,4.53332 -1.9391,1.65402 -3.51255,1.97452 -6.19008,1.26091 z m -7.73727,-9.00394 c -0.40474,-0.24108 -0.19082,-0.32586 0.83181,-0.32967 1.78309,-0.007 3.52945,-0.84857 6.93786,-3.34484 1.52078,-1.11378 2.76504,-1.89728 2.76504,-1.74115 0,0.56244 -5.05796,4.76954 -6.31704,5.2544 -1.46775,0.56518 -3.41452,0.63961 -4.21767,0.16126 z m 42.37291,-0.88075 c -2.25127,-0.63728 -2.05648,-0.82571 0.37339,-0.36122 2.62311,0.5014 4.52801,-0.0529 5.5817,-1.62412 0.66717,-0.9949 0.76889,-1.55643 0.65072,-3.59257 -0.18691,-3.22151 -1.24078,-5.09092 -4.64421,-8.23819 -2.42345,-2.24106 -2.53193,-2.39264 -1.03095,-1.44089 2.25657,1.43088 4.77621,4.21157 6.00209,6.62397 1.23602,2.43231 1.39319,5.77364 0.33988,7.22506 -1.34151,1.84854 -3.93948,2.3515 -7.27262,1.40796 z m -5.3473,-1.04431 -0.88068,-0.92069 0.99899,0.81164 c 0.93371,0.75861 1.16558,1.02973 0.88066,1.02973 -0.065,0 -0.5146,-0.41431 -0.99897,-0.92068 z m -3.97893,-3.30654 c -1.2929,-1.22016 -2.10127,-2.08644 -1.79638,-1.92506 0.5854,0.30982 4.5649,4.14352 4.30113,4.14352 -0.0847,0 -1.21185,-0.99831 -2.50475,-2.21846 z m -13.19348,-9.93688 c -0.90065,-0.35463 -0.65047,-0.39128 1.93261,-0.28318 3.64544,0.15257 5.46116,-0.40866 7.47709,-2.31115 1.40959,-1.33022 1.43516,-1.39899 1.56186,-4.19837 0.088,-1.94473 0.26058,-2.80602 0.5449,-2.71977 0.53949,0.16366 0.92618,4.17581 0.50712,5.26145 -1.11576,2.89046 -4.36877,4.68919 -8.44614,4.67022 -1.39858,-0.007 -3.00842,-0.19515 -3.57744,-0.4192 z m -5.67251,-2.09883 c -0.84273,-0.84261 -1.42344,-1.63231 -1.29046,-1.75488 0.13303,-0.12257 0.40665,0.0486 0.60811,0.38036 0.20147,0.33178 0.86003,1.12148 1.46345,1.75489 1.62195,1.70249 0.9984,1.39886 -0.7811,-0.38037 z m 0.71321,-8.84658 c 0,-0.21277 2.8355,-0.3348 7.77995,-0.3348 8.44905,0 8.25332,0.0476 7.92598,-1.92506 -0.14119,-0.8508 -0.0514,-1.08807 0.41188,-1.08807 0.47591,0 0.5924,0.36213 0.5924,1.84136 l 0,1.84136 -8.3551,0 c -5.32791,0 -8.35511,-0.12129 -8.35511,-0.33479 z M 288.26143,447.66319 c -0.50178,-0.18081 -0.21908,-0.26405 0.95215,-0.28036 4.2929,-0.0599 7.22524,-3.68121 6.39399,-7.89641 -0.18258,-0.92577 -0.90843,-2.74839 -1.613,-4.05027 -1.61283,-2.98021 -1.08076,-2.51405 1.11162,0.97387 1.45027,2.30725 1.67803,2.92328 1.67113,4.51971 -0.009,2.15319 -0.89113,4.13946 -2.39825,5.40185 -1.68903,1.41474 -4.306,1.98437 -6.11764,1.33161 z m 125.03296,-0.87718 c 3.78971,-1.09977 5.27768,-2.77839 5.48684,-6.18987 0.12741,-2.07815 0.0197,-2.48841 -1.37194,-5.22592 -1.74979,-3.44198 -1.54397,-3.35414 0.88376,0.37721 1.91696,2.94634 2.3121,4.56055 1.66146,6.78746 -0.49937,1.70917 -2.29489,3.68869 -3.90991,4.3106 -0.64604,0.24877 -1.87461,0.43742 -2.73017,0.41922 l -1.55554,-0.0331 1.5355,-0.4456 z m -109.78866,-2.8467 c -0.6141,-0.28275 -0.56982,-0.30634 0.28607,-0.15245 1.55543,0.27968 3.94524,-0.45038 5.25372,-1.60495 0.9781,-0.86303 1.18063,-1.29175 1.18063,-2.49925 0,-2.04305 -0.68299,-3.05008 -3.52108,-5.1918 -1.36006,-1.02634 -2.88149,-2.27843 -3.38098,-2.78243 -0.49949,-0.504 0.82509,0.37955 2.94354,1.96344 4.32791,3.23589 5.12918,4.15521 5.18002,5.94343 0.0455,1.5996 -0.56923,2.63253 -2.16734,3.64175 -1.41071,0.89087 -4.52291,1.25858 -5.77458,0.68226 z m -28.33472,-0.65902 c -0.5372,-0.21275 -0.2435,-0.29386 1.12688,-0.31126 2.92128,-0.0371 3.83594,-0.8345 6.85541,-5.97637 1.43606,-2.44544 2.80204,-4.62235 3.03555,-4.83757 0.60974,-0.56194 -3.02868,6.99215 -4.21261,8.74626 -1.54369,2.28708 -4.46159,3.30711 -6.80523,2.37894 z m 151.42785,0.0785 c -0.22945,-0.13528 0.46864,-0.26565 1.5513,-0.28971 3.72172,-0.0827 6.03987,-2.43173 5.19215,-5.2613 -0.34086,-1.13771 -1.51329,-2.25489 -8.2644,-7.87485 -1.8508,-1.54072 -3.27066,-2.88835 -3.15524,-2.99474 0.11545,-0.1064 1.30868,0.79249 2.65164,1.99751 1.34295,1.20502 3.88703,3.28727 5.6535,4.62722 3.61057,2.73879 4.59512,3.97192 4.59709,5.75779 0.002,1.47456 -1.37766,3.15569 -3.14859,3.83764 -1.26332,0.48647 -4.38341,0.60965 -5.07745,0.20044 z m -28.28081,-0.74816 c -0.54522,-0.21593 -0.29144,-0.2936 1.01702,-0.31126 3.23854,-0.0437 3.85482,-0.6149 7.70051,-7.13709 1.16689,-1.97903 2.1754,-3.54869 2.24111,-3.48813 0.0658,0.0605 -0.27243,1.00182 -0.75141,2.09167 -0.47899,1.08985 -1.31869,3.00781 -1.86602,4.26213 -1.02808,2.35611 -2.54776,4.08012 -4.06526,4.61185 -1.06917,0.37464 -3.29465,0.35946 -4.27595,-0.0292 z m -129.68583,-8.50333 c 2.18007,-0.63542 3.75438,-1.4556 6.26634,-3.26461 1.24872,-0.89928 2.27041,-1.50372 2.27041,-1.34318 0,0.57568 -4.01573,3.77803 -5.53417,4.41321 -0.85223,0.35651 -2.20339,0.64143 -3.00258,0.63315 l -1.45306,-0.015 1.45306,-0.42353 z m 41.66628,-0.51444 c -1.88524,-0.43835 -1.68766,-0.57735 0.60357,-0.4246 3.79925,0.25327 5.49984,-1.24758 5.49929,-4.85339 0,-3.68376 -3.22957,-8.14017 -8.1054,-11.18633 -1.23607,-0.77221 -1.95807,-1.30917 -1.60443,-1.19324 2.94746,0.9663 8.16854,5.61284 9.65949,8.59652 1.71922,3.44051 1.34993,7.23501 -0.83243,8.55285 -1.1065,0.6682 -3.52095,0.90324 -5.22009,0.50819 z m 82.27975,-0.32723 c 1.89286,-0.59473 3.0997,-1.31693 6.44412,-3.85626 2.1316,-1.61848 1.80301,-0.89347 -0.67517,1.4897 -2.1844,2.10065 -4.05227,3.01432 -6.09939,2.98349 l -1.55834,-0.0234 1.88878,-0.59345 z m 40.79494,-0.3517 c -0.67162,-0.18914 -0.3705,-0.26142 1.15601,-0.2775 1.1353,-0.0119 2.41094,-0.19277 2.83475,-0.40181 1.3698,-0.67564 2.18192,-2.3399 2.1834,-4.4744 0.003,-3.82748 -3.11994,-8.09183 -8.27543,-11.30128 -2.98695,-1.85947 -2.63338,-1.97684 0.59352,-0.197 3.08174,1.69977 6.31547,4.82154 7.72199,7.45463 1.02341,1.91592 1.23163,2.67841 1.22641,4.49094 -0.007,2.55215 -0.75128,3.86085 -2.59915,4.57243 -1.27249,0.49 -3.37116,0.54809 -4.8415,0.13399 z m -133.13686,-3.695 c -0.98393,-0.92068 -1.63168,-1.67389 -1.43941,-1.67381 0.19229,9e-5 1.05345,0.75338 1.91366,1.67397 0.86022,0.92059 1.50795,1.6738 1.4394,1.6738 -0.0686,0 -0.9297,-0.75328 -1.91365,-1.67396 z m -13.20822,-10.09308 c -1.75378,-0.46514 -1.23878,-0.64573 0.68541,-0.24034 3.13436,0.66035 6.71866,-0.26854 8.77624,-2.27437 1.34143,-1.30773 1.74862,-2.46985 1.74862,-4.99066 0,-1.1849 0.14501,-2.15436 0.32228,-2.15436 0.53324,0 0.70648,4.74091 0.21484,5.8792 -0.58032,1.34359 -3.07385,3.28702 -4.84487,3.77605 -1.66201,0.45892 -5.18043,0.4612 -6.90252,0.005 z m 125.45731,-0.30741 -1.45306,-0.21788 1.85294,-0.0476 c 3.44344,-0.0883 6.38026,-1.51702 7.75622,-3.77331 0.71548,-1.17326 0.80999,-1.70238 0.6567,-3.67685 -0.13915,-1.79248 -0.07,-2.30636 0.31043,-2.30636 0.53104,0 0.73921,0.65342 0.9795,3.07449 0.43795,4.41239 -4.47541,7.79119 -10.10273,6.94742 z M 281.0226,416.78321 c -0.70881,-0.76316 -1.19391,-1.52897 -1.07803,-1.70178 0.11588,-0.17281 0.53742,0.18794 0.93671,0.80169 0.39931,0.61373 0.97875,1.37954 1.28764,1.70177 0.30891,0.32224 0.4673,0.58589 0.35201,0.58589 -0.11531,0 -0.78956,-0.6244 -1.49833,-1.38757 z m 123.78644,-0.075 c -1.53373,-1.41352 -1.97833,-2.22021 -1.22363,-2.22021 0.19979,0 0.36326,0.12945 0.36326,0.28766 0,0.15821 0.66777,0.98683 1.48394,1.84136 1.87632,1.96454 1.47309,2.02352 -0.62357,0.0912 z m -115.01659,-8.49725 8.08266,-0.0968 0,-1.66756 c 0,-0.91717 0.16347,-1.66757 0.36327,-1.66757 0.19979,0 0.36547,0.48964 0.36824,1.08808 0.004,0.59844 0.10349,1.42705 0.22398,1.84136 l 0.21906,0.75329 -8.66995,-0.077 -8.66992,-0.077 8.08266,-0.0969 z m 123.32869,-0.66957 7.90102,-0.0971 0,-1.66743 c 0,-1.25897 0.13348,-1.66743 0.54489,-1.66743 0.41831,0 0.5449,0.42779 0.5449,1.84136 l 0,1.84136 -8.44591,-0.0768 -8.44594,-0.0768 7.90104,-0.0971 z"
       id="path4135"
       inkscape:connector-curvature="0" />
    <path
       style="fill:#ffffff"
       d="m 349.05298,610.72526 c -1.31815,-1.21484 -2.06233,-3.76803 -1.71694,-5.89071 0.24074,-1.47967 3.36679,-7.71454 3.70953,-7.39867 0.0964,0.0889 -0.31561,1.19268 -0.91572,2.45283 -2.13223,4.4773 -2.27638,9.16994 -0.34005,11.06953 1.14537,1.12363 0.52091,0.92618 -0.73682,-0.23298 z m 13.97494,-4.44606 c -1.11733,-1.03663 -2.53087,-2.89074 -3.44572,-4.51971 -0.85313,-1.51914 -1.48645,-2.76205 -1.40733,-2.76205 0.0791,0 1.01748,1.31758 2.08525,2.92795 1.06776,1.61037 2.66837,3.64425 3.55692,4.5197 2.18813,2.15597 1.57454,2.02698 -0.78912,-0.16589 z m -27.27947,0.0562 c -1.64766,-1.33325 -2.17706,-2.99424 -1.4591,-4.57789 0.55816,-1.23113 5.27742,-5.75162 7.43152,-7.11849 1.00754,-0.63934 0.78138,-0.3045 -1.0898,1.61344 -3.79801,3.89287 -5.37085,5.78981 -5.5611,6.70691 -0.23128,1.1152 0.28629,2.33929 1.47461,3.48729 1.28215,1.23864 0.78648,1.1694 -0.79613,-0.11126 z m -6.35225,-8.55483 c -1.85966,-2.17889 -0.30898,-6.64951 3.70779,-10.68952 2.80488,-2.82112 9.33062,-7.51157 10.45067,-7.51157 0.77862,0 0.14516,0.60054 -2.74196,2.59949 -3.82843,2.65066 -8.8886,7.52236 -9.98766,9.61563 -0.99281,1.89094 -1.38354,5.07083 -0.75589,6.15167 0.57022,0.98193 0.23639,0.89974 -0.67295,-0.1657 z m 35.16404,-4.39086 c -0.45182,-0.531 -0.43901,-0.54285 0.13718,-0.12641 0.34964,0.25273 0.63571,0.51637 0.63571,0.58589 0,0.27556 -0.29831,0.0982 -0.77289,-0.45948 z m -11.9414,-8.10171 c -1.10343,-0.22311 -0.98307,-0.25874 0.91059,-0.26961 4.55445,-0.0262 7.60594,-1.58041 9.36829,-4.77162 0.70805,-1.28212 1.2031,-1.80977 1.6347,-1.74232 1.03026,0.16102 4.83077,1.48995 4.67406,1.63439 -0.0804,0.0741 -0.99088,-0.17206 -2.02324,-0.54708 -1.03237,-0.37503 -2.00297,-0.68187 -2.15692,-0.68187 -0.15396,0 -0.55097,0.56496 -0.88226,1.25548 -0.8071,1.68226 -3.0215,3.73776 -4.80482,4.46008 -1.73328,0.70203 -4.9545,1.01961 -6.7204,0.66255 z m -5.33231,-3.20689 c -1.61294,-1.17173 -2.87357,-3.10787 -2.34234,-3.59747 0.22512,-0.20749 0.40933,-1.32639 0.40933,-2.48645 l 0,-2.1092 8.35511,0 c 5.32791,0 8.35511,0.12131 8.35511,0.3348 0,0.21305 -2.90613,0.33479 -7.99185,0.33479 l -7.99184,0 0,2.84478 c 0,2.79837 0.0214,2.86665 1.31372,4.18492 1.52153,1.55216 1.4981,1.66004 -0.10724,0.49383 z m 23.65581,-1.01352 c -0.67712,-0.49999 -0.67265,-0.50617 0.11222,-0.15563 0.44954,0.20078 0.81735,0.43507 0.81735,0.52066 0,0.2562 -0.18839,0.18221 -0.92957,-0.36503 z m -25.72312,-8.93726 c -0.12049,-0.41431 -0.22126,-1.24292 -0.22402,-1.84136 l -0.005,-1.08808 8.35511,0 c 5.32792,0 8.35511,0.1213 8.35511,0.33479 0,0.21281 -2.84557,0.33479 -7.81021,0.33479 l -7.8102,0 0,1.50657 c 0,1.59164 -0.49191,2.02207 -0.86083,0.75329 z M 285.5022,445.9132 c -1.10934,-1.09142 -1.54058,-2.37659 -1.54058,-4.59117 0,-1.64297 0.25614,-2.42329 1.61389,-4.91641 2.12206,-3.89651 3.0297,-4.93142 1.64941,-1.8806 -2.2715,5.02058 -2.68679,8.6037 -1.28647,11.09941 0.69445,1.23769 0.5951,1.30346 -0.43625,0.28877 z m 123.31133,-0.51445 c -2.40286,-2.44703 -2.22297,-6.34553 0.50012,-10.83825 1.62519,-2.68137 1.62458,-2.51864 -0.006,1.72739 -1.363,3.54815 -1.51385,6.91626 -0.3861,8.62092 0.80527,1.21724 0.76901,1.38256 -0.1075,0.48994 z m -108.73472,-3.33568 c -0.61075,-0.50637 -1.52229,-1.44875 -2.02568,-2.09416 -0.94492,-1.21156 -3.67806,-6.02457 -3.42116,-6.02457 0.0796,0 1.02166,1.37722 2.09336,3.0605 1.0717,1.68327 2.57545,3.71714 3.34168,4.5197 1.60044,1.67638 1.60443,1.85896 0.012,0.53853 z m -27.66293,-0.27141 c -1.04224,-0.67281 -1.89544,-2.20224 -1.89374,-3.39469 0.004,-1.75131 1.97609,-3.94839 6.38447,-7.10765 2.62493,-1.88117 2.43676,-1.57609 -1.32809,2.15283 -3.16445,3.13423 -4.10462,4.61802 -3.84833,6.07346 0.11819,0.67133 0.57683,1.57564 1.01913,2.00958 0.93211,0.91441 0.8151,1.00789 -0.33344,0.26647 z m 150.24364,-0.73297 c -1.2876,-1.38305 -5.27993,-7.44915 -4.90256,-7.44915 0.0918,0 0.86372,1.09226 1.71541,2.42726 0.85168,1.33499 2.11027,3.14287 2.79683,4.01751 1.22949,1.5663 1.45594,2.14901 0.39032,1.00438 z m -27.8994,-0.7501 c -1.3108,-1.69654 -1.30874,-2.95928 0.007,-4.77822 1.15478,-1.59547 5.70498,-5.67447 7.0734,-6.34089 0.59245,-0.28854 0.55529,-0.17591 -0.20133,0.61025 -4.58079,4.75961 -6.1073,6.42466 -6.46518,7.05204 -0.57342,1.00516 -0.52249,2.29482 0.13705,3.47026 0.7143,1.27303 0.43694,1.26627 -0.55176,-0.0135 z m 36.10794,-6.11316 -0.69201,-0.75328 0.81735,0.63777 c 0.44953,0.35078 0.81734,0.68976 0.81734,0.75329 0,0.26792 -0.29234,0.0701 -0.94268,-0.63778 z m -164.86055,-0.89264 c -1.5224,-1.5504 -0.94693,-4.91428 1.39767,-8.1697 2.88425,-4.00476 11.9401,-10.9777 12.99462,-10.0058 0.2341,0.21574 0.35481,0.44183 0.26821,0.50244 -0.0865,0.0606 -1.30169,0.84551 -2.70027,1.74423 -7.5674,4.86283 -13.06433,12.25247 -11.48722,15.44254 0.54977,1.11205 0.34659,1.32094 -0.47301,0.48629 z m 123.05915,-0.90297 c -1.00003,-1.40662 -0.76555,-3.80647 0.62746,-6.42207 0.87631,-1.64535 2.07548,-3.05001 4.49175,-5.26133 3.87273,-3.54428 8.77395,-6.79976 9.38685,-6.2349 0.21987,0.20264 0.32893,0.42181 0.24236,0.48704 -0.0866,0.0652 -1.13548,0.70803 -2.33089,1.42845 -3.24399,1.955 -8.87402,7.09301 -10.42996,9.51844 -1.49521,2.33083 -2.11741,5.16909 -1.43548,6.54843 0.52855,1.06914 0.22881,1.03437 -0.55209,-0.064 z m -100.92748,-11.8316 c -0.46803,-0.17527 0.17825,-0.2645 1.81633,-0.25077 4.87059,0.0408 8.78547,-2.07047 9.96226,-5.37267 0.27893,-0.78258 0.53707,-1.42287 0.57372,-1.42287 0.86439,0 7.80893,2.81786 7.80893,3.16859 0,0.0793 -1.02168,-0.29628 -2.27041,-0.8346 -1.24873,-0.53832 -2.7773,-1.07205 -3.39682,-1.18606 -1.06353,-0.1957 -1.18962,-0.1041 -2.25755,1.63987 -1.94332,3.1735 -4.72242,4.59228 -8.9206,4.55413 -1.42415,-0.013 -2.91627,-0.14597 -3.31586,-0.29562 z m 123.80355,-0.34816 c -0.8377,-0.16259 -1.98199,-0.54053 -2.54286,-0.83985 -0.56087,-0.29932 -0.69318,-0.44971 -0.29404,-0.3342 2.13896,0.61904 4.42841,0.87877 5.93445,0.67325 3.86194,-0.52702 7.02562,-2.61814 8.09868,-5.35305 0.44777,-1.14123 0.57939,-1.22741 1.63377,-1.06972 1.33192,0.1992 6.15611,2.23199 7.21965,3.04219 0.39958,0.3044 -0.41776,0.0346 -1.81633,-0.59959 -2.50309,-1.13501 -5.55055,-2.12123 -5.72378,-1.85233 -0.0486,0.0756 -0.51283,0.89063 -1.03149,1.81131 -1.98626,3.52584 -6.81302,5.42743 -11.47805,4.52199 z m 22.77414,-1.73062 c -1.09888,-0.93465 -1.50756,-1.39386 -0.90817,-1.02048 1.02547,0.6388 3.40961,2.76579 3.0649,2.73432 -0.0873,-0.008 -1.05785,-0.77919 -2.15673,-1.71384 z m -151.83341,-2.14896 c -1.14658,-1.14638 -1.48064,-1.71712 -1.3227,-2.25985 0.11626,-0.39936 0.21357,-1.66772 0.2163,-2.81857 l 0.005,-2.09246 8.53673,0 c 5.44898,0 8.53675,0.12109 8.53675,0.33479 0,0.21301 -2.89247,0.3348 -7.95088,0.3348 l -7.95082,0 -0.16297,2.42725 c -0.17839,2.65688 0.0945,3.70946 1.25828,4.8545 0.42114,0.41431 0.67626,0.75328 0.56698,0.75328 -0.1093,0 -0.88897,-0.69018 -1.73265,-1.53374 z m 122.48292,-1.30129 c -0.59321,-0.69505 -0.67956,-1.21347 -0.54366,-3.26424 0.0889,-1.34087 0.22575,-2.62627 0.3042,-2.85644 0.20777,-0.60964 16.87565,-0.60751 16.87565,0.002 0,0.32857 -1.73808,0.39397 -7.93925,0.29875 l -7.93924,-0.1219 -0.22928,0.78933 c -0.36277,1.24898 -0.27623,4.61965 0.13686,5.33104 0.52355,0.90158 0.17737,0.8086 -0.66528,-0.17869 z m -123.58434,-8.71533 0,-1.84137 8.35511,0 c 5.32791,0 8.3551,0.1213 8.3551,0.33479 0,0.21282 -2.84556,0.3348 -7.8102,0.3348 l -7.81022,0 0,1.50657 c 0,1.11597 -0.14127,1.50657 -0.54489,1.50657 -0.41831,0 -0.5449,-0.42779 -0.5449,-1.84136 z m 123.14705,-0.66959 0,-1.84137 8.35511,0 c 5.32789,0 8.3551,0.1213 8.3551,0.33479 0,0.21306 -2.90612,0.3348 -7.99184,0.3348 l -7.99184,0 0,1.50658 c 0,0.82861 -0.16347,1.50657 -0.36327,1.50657 -0.19979,0 -0.36326,-0.82863 -0.36326,-1.84137 z"
       id="path4131"
       inkscape:connector-curvature="0" />
  </g>
</svg>
