<?xml version="1.0" encoding="UTF-8" standalone="no"?>
<!-- Created with Inkscape (http://www.inkscape.org/) -->

<svg
   xmlns:dc="http://purl.org/dc/elements/1.1/"
   xmlns:cc="http://creativecommons.org/ns#"
   xmlns:rdf="http://www.w3.org/1999/02/22-rdf-syntax-ns#"
   xmlns:svg="http://www.w3.org/2000/svg"
   xmlns="http://www.w3.org/2000/svg"
   xmlns:xlink="http://www.w3.org/1999/xlink"
   xmlns:sodipodi="http://sodipodi.sourceforge.net/DTD/sodipodi-0.dtd"
   xmlns:inkscape="http://www.inkscape.org/namespaces/inkscape"
   width="465.09375"
   height="528.34375"
   id="svg5905"
   version="1.1"
   inkscape:version="0.48.4 r9939"
   sodipodi:docname="Nieuw document 22">
  <defs
     id="defs5907">
    <linearGradient
       y2="162.69345"
       x2="373.88794"
       y1="162.69345"
       x1="90.493294"
       gradientTransform="matrix(-1,0,0,1,496.77366,188.36284)"
       gradientUnits="userSpaceOnUse"
       id="linearGradient4969-7"
       xlink:href="#linearGradient4207-4-4-6-9"
       inkscape:collect="always" />
    <linearGradient
       id="linearGradient4207-4-4-6-9">
      <stop
         style="stop-color:#cc992d;stop-opacity:1;"
         offset="0"
         id="stop4209-4-0-0-0" />
      <stop
         style="stop-color:#e1a832;stop-opacity:1;"
         offset="0.14285725"
         id="stop4211-1-3-1-8" />
      <stop
         id="stop4213-9-4-2-1"
         offset="0.32142863"
         style="stop-color:#e5cf5c;stop-opacity:1;" />
      <stop
         style="stop-color:#e5c547;stop-opacity:1;"
         offset="0.5"
         id="stop4215-5-1-60-4" />
      <stop
         id="stop4217-5-2-5-0"
         offset="0.75"
         style="stop-color:#ffffa3;stop-opacity:1;" />
      <stop
         style="stop-color:#ffd94d;stop-opacity:1;"
         offset="0.875"
         id="stop4219-7-2-4-7" />
      <stop
         id="stop4221-4-9-6-9"
         offset="1"
         style="stop-color:#ffdb4e;stop-opacity:1;" />
    </linearGradient>
  </defs>
  <sodipodi:namedview
     id="base"
     pagecolor="#ffffff"
     bordercolor="#666666"
     borderopacity="1.0"
     inkscape:pageopacity="0.0"
     inkscape:pageshadow="2"
     inkscape:zoom="0.35"
     inkscape:cx="347.53125"
     inkscape:cy="98.481567"
     inkscape:document-units="px"
     inkscape:current-layer="layer1"
     showgrid="false"
     inkscape:window-width="1600"
     inkscape:window-height="837"
     inkscape:window-x="-8"
     inkscape:window-y="-8"
     inkscape:window-maximized="1"
     fit-margin-top="0"
     fit-margin-left="0"
     fit-margin-right="0"
     fit-margin-bottom="0" />
  <metadata
     id="metadata5910">
    <rdf:RDF>
      <cc:Work
         rdf:about="">
        <dc:format>image/svg+xml</dc:format>
        <dc:type
           rdf:resource="http://purl.org/dc/dcmitype/StillImage" />
        <dc:title></dc:title>
      </cc:Work>
    </rdf:RDF>
  </metadata>
  <g
     inkscape:label="Laag 1"
     inkscape:groupmode="layer"
     id="layer1"
     transform="translate(-27.46875,-102.5)">
    <path
       sodipodi:nodetypes="ccsccccsssccccccscccsscsccsccc"
       inkscape:connector-curvature="0"
       id="path15028-58-75-7"
       d="m 259.67614,630.49626 c 0,-0.58103 -3.62243,-6.15464 -5.88487,-9.05448 -7.0318,-9.01387 -15.68838,-15.51256 -26.29123,-19.73732 -4.39041,-1.74941 -10.2996,-3.25662 -15.52011,-3.95824 -1.20758,-0.16208 -2.50221,-0.34047 -2.87679,-0.39598 -0.37476,-0.0552 -28.20918,-0.14666 -61.85377,-0.20068 l -61.172167,-0.10002 -2.195526,-0.31378 c -3.264746,-0.46663 -5.415826,-0.86318 -7.860406,-1.44936 -7.845034,-1.88116 -15.687367,-5.51237 -22.195541,-10.27681 -4.249984,-3.11131 -9.037259,-7.77048 -12.505428,-12.17109 -6.616992,-8.39532 -11.402917,-19.13789 -13.090369,-29.38246 -0.709659,-4.30987 -0.668944,9.20607 -0.672147,-222.9469 l 1.92202,-214.69347 230.426294,-3.09867 232.34812,0 0,217.79214 c 0,232.15297 0.0374,218.63703 -0.67207,222.9469 -1.68749,10.24457 -6.47322,20.98714 -13.09023,29.38246 -3.46816,4.40061 -8.2556,9.05978 -12.50522,12.17109 -6.51585,4.77 -14.34195,8.39362 -22.1957,10.27681 -2.44463,0.58618 -4.5957,0.98273 -7.86065,1.44936 l -2.19549,0.31378 -61.17204,0.10002 c -33.64473,0.0552 -61.47898,0.1449 -61.85356,0.20068 -0.37494,0.0552 -1.66938,0.23375 -2.87698,0.39598 -17.11275,2.30007 -31.4663,10.43456 -41.8115,23.69556 -2.04599,2.62256 -5.50048,7.87794 -5.92966,9.02076 -0.12003,0.3167 -0.40924,0.34069 -0.40924,0.0342 z"
       style="fill:#1a1a1a;fill-opacity:1" />
    <path
       sodipodi:nodetypes="cccccccccccc"
       inkscape:connector-curvature="0"
       id="path15042-78-3-3-2"
       d="m 27.647091,102.65936 11.853386,11.00964 0,424.28043 c 0.854114,21.15124 20.315304,44.53587 46.850041,48.42694 l 123.984112,0 c 14.85927,0 49.80169,15.08603 49.80169,29.36839 l -0.15882,14.81978 c -13.54322,-23.41226 -32.65837,-31.41373 -50.88172,-33.37213 l -0.017,0 -122.736144,0 C 56.81168,594.36824 29.282763,569.7834 27.63923,537.94943 z"
       style="opacity:0.38492061;fill:#ffffff;fill-opacity:0.31603777;stroke:#000000;stroke-width:0.14933443px;stroke-linecap:butt;stroke-linejoin:miter;stroke-opacity:0" />
    <path
       sodipodi:nodetypes="cccccccccccc"
       inkscape:connector-curvature="0"
       id="path15042-7-9-4-0-2"
       d="m 492.35296,102.65662 -11.85335,11.00944 0,424.28068 c -0.85409,21.15102 -20.31525,44.53559 -46.85015,48.42641 l -123.98416,0 c -14.85928,0 -49.80168,15.08613 -49.80168,29.36871 l 0.15883,14.81978 c 13.54353,-23.41211 32.65868,-31.41358 50.88186,-33.37224 l 0.0169,0 122.73629,0 c 29.53086,-2.82386 57.05985,-27.40912 58.70345,-59.24266 z"
       style="opacity:0.19444442;fill:#000000;fill-opacity:1;stroke:#000000;stroke-width:0.14933443px;stroke-linecap:butt;stroke-linejoin:miter;stroke-opacity:0" />
    <path
       inkscape:connector-curvature="0"
       id="path15070-7-3-0-0"
       d="m 492.36755,102.65936 -11.86706,11.00964 -441.000013,0 -11.853386,-11.00964 z"
       style="fill:#ffffff;fill-opacity:0.12735847;stroke:#000000;stroke-width:0.14933443px;stroke-linecap:butt;stroke-linejoin:miter;stroke-opacity:0" />
    <path
       style="fill:#000000;fill-opacity:0.46226418"
       d="m 212.43668,565.09585 c -19.90019,-3.08385 -31.36608,-5.13405 -42.1808,-7.54223 -15.28032,-3.40259 -28.55382,-7.55931 -39.57553,-12.39341 -2.48816,-1.09129 -2.82488,-1.30479 -2.72996,-1.73091 0.0596,-0.26737 3.46002,-19.77251 7.55663,-43.34481 4.09661,-23.57231 7.51972,-43.0866 7.60692,-43.36508 0.0871,-0.27852 3.89938,-4.34014 8.47154,-9.02584 l 8.31301,-8.51946 2.15455,-6.89656 c 17.42276,-55.76888 23.70624,-114.74307 19.00028,-178.32921 -0.25332,-3.4227 -0.48328,-6.2476 -0.51105,-6.27758 -0.0278,-0.0299 -0.6911,0.15499 -1.47413,0.41106 -0.78301,0.25607 -1.48428,0.38735 -1.55837,0.29173 -0.1224,-0.15792 -3.89315,-11.41272 -4.03039,-12.02956 -0.0321,-0.14445 0.75616,-0.55289 1.75178,-0.90762 l 1.81016,-0.64499 -4.87313,-14.92864 c -2.68022,-8.21076 -4.84152,-14.96104 -4.80284,-15.00062 0.0386,-0.0396 5.19082,-0.96392 11.44925,-2.05405 8.59876,-1.49778 11.41949,-1.91134 11.54469,-1.69253 0.091,0.15925 1.20512,4.27279 2.47558,9.14122 2.25591,8.64475 2.32285,8.85133 2.86452,8.83707 0.30505,-0.008 4.19572,-0.74117 8.64596,-1.62923 7.44893,-1.48646 8.08714,-1.65165 8.03868,-2.08046 -0.0289,-0.2562 -1.35072,-8.89433 -2.93724,-19.19587 -1.58657,-10.30154 -2.88465,-18.79688 -2.88465,-18.87855 0,-0.0816 -0.49613,-0.11117 -1.10253,-0.0655 l -1.10252,0.083 -1.00923,-4.53126 c -1.04568,-4.69499 -1.04877,-4.91311 -0.0698,-4.92272 0.20542,-0.001 0.6131,-0.10204 0.90593,-0.22231 l 0.53245,-0.21864 -2.70639,-12.53123 -2.7064,-12.53123 0.8029,-0.17448 c 0.94846,-0.20612 30.17184,-2.43418 30.25782,-2.30694 0.0324,0.0479 0.83465,4.88175 1.78289,10.7419 0.94821,5.86015 1.78931,10.71734 1.86909,10.79375 0.11279,0.10808 25.17756,-0.83629 25.2005,-0.94946 0.003,-0.0152 -0.30724,-4.74135 -0.68955,-10.50274 -0.38232,-5.76138 -0.6841,-10.49089 -0.67061,-10.51002 0.0134,-0.0191 2.63804,-0.15264 5.83237,-0.29668 4.23546,-0.191 7.41638,-0.18966 11.74905,0.005 3.26765,0.14676 5.95283,0.28027 5.96706,0.29669 0.0144,0.0164 10.37197,-2.33984 10.03109,2.73018 -0.34089,5.07002 -3.41416,17.57868 -3.44654,18.30297 l 0.92315,0.24547 3.6734,0.32614 c 6.86059,0.60916 12.57797,0.43923 12.65777,0.35917 0.0797,-0.08 0.92088,-4.94026 1.8691,-10.80041 0.94823,-5.86015 1.74763,-10.69089 1.77645,-10.73496 0.0755,-0.11533 28.81673,2.08008 30.04432,2.29489 l 1.02629,0.17958 -2.70832,12.53116 c -2.6503,12.26265 -2.69839,12.53517 -2.24551,12.71936 0.25453,0.10352 0.78698,0.26438 1.18323,0.35748 0.39626,0.093 0.72048,0.20619 0.72048,0.25137 0,0.0451 -0.39885,1.89521 -0.88629,4.11121 -0.48746,2.216 -0.93462,4.25587 -0.9937,4.53307 -0.0961,0.45021 -0.22611,0.49167 -1.21969,0.38854 -0.61175,-0.0635 -1.11226,-0.0452 -1.11226,0.0404 0,0.0857 -1.2981,8.58438 -2.88464,18.88591 -1.58653,10.30153 -2.90831,18.94345 -2.93724,19.20426 -0.0489,0.44044 0.56038,0.59557 8.55718,2.17881 5.77842,1.14402 8.63901,1.618 8.69855,1.44127 0.0488,-0.14484 1.12237,-4.2249 2.38575,-9.06681 1.26337,-4.84191 2.35974,-8.87119 2.43637,-8.95395 0.15999,-0.17279 22.98329,3.77874 22.97774,3.97826 -0.003,0.0722 -2.18626,6.81164 -4.85394,14.97635 l -4.8503,14.84491 1.85198,0.67505 1.85196,0.67506 -0.40239,1.1207 c -0.22134,0.61638 -1.13086,3.32949 -2.02117,6.02911 -0.89033,2.69961 -1.68531,4.99204 -1.76662,5.09427 -0.0813,0.1023 -0.78434,-0.0281 -1.5623,-0.28962 -0.77797,-0.26151 -1.43631,-0.45191 -1.46301,-0.42308 -0.10804,0.11667 -0.99058,12.90196 -1.29257,18.72382 -1.7518,33.77249 -0.29557,66.74718 4.33466,98.15421 3.47998,23.60477 8.38079,45.08986 15.44939,67.72994 l 2.15426,6.89982 8.313,8.5236 c 4.57215,4.68797 8.38401,8.74814 8.4708,9.02255 0.0868,0.27443 3.50953,19.78538 7.60608,43.35768 4.09653,23.57231 7.50028,43.08998 7.56384,43.3726 0.10541,0.46891 -0.23025,0.66057 -3.83752,2.19119 -16.06096,6.81479 -34.85773,11.8336 -61.19444,16.33914 -6.47818,1.10824 -33.36498,5.28704 -33.44027,5.19734 -0.0271,-0.0324 -1.2361,-9.10929 -2.6867,-20.17116 l -2.63743,-20.11248 -6.19789,0.0235 c -7.944,0.0299 -53.96972,0.0297 -62.83223,0 l -6.75632,-0.023 -2.64304,20.17233 c -1.7025,12.99397 -2.72977,20.16265 -2.88677,20.14513 -0.13405,-0.0148 -6.32885,-0.97023 -13.76621,-2.12276 z"
       id="path4733-2-5"
       inkscape:connector-curvature="0"
       sodipodi:nodetypes="csscscscsscsccscscscscscssscscscccscsccscsscsccscscscsscsscssscscsccsccccscccssscscscsscsccccsccc" />
    <path
       style="fill:url(#linearGradient4969-7);fill-opacity:1"
       d="m 207.38592,563.07555 c -19.9002,-3.08385 -31.36607,-5.13405 -42.1808,-7.54223 -15.28031,-3.40259 -28.55382,-7.55931 -39.57554,-12.39341 -2.48816,-1.09129 -2.82488,-1.30479 -2.72996,-1.73091 0.0596,-0.26737 3.46002,-19.77251 7.55663,-43.34482 4.09662,-23.5723 7.51973,-43.08659 7.60693,-43.36507 0.0871,-0.27851 3.89939,-4.34014 8.47153,-9.02584 l 8.31302,-8.51946 2.15455,-6.89656 c 17.42277,-55.76888 23.70624,-114.74306 19.00027,-178.32921 -0.25332,-3.4227 -0.48327,-6.2476 -0.51105,-6.27758 -0.0278,-0.0301 -0.6911,0.15499 -1.47412,0.41106 -0.78301,0.25607 -1.48428,0.38735 -1.55836,0.29173 -0.1224,-0.15793 -3.89315,-11.41272 -4.03039,-12.02957 -0.0321,-0.14446 0.75616,-0.55288 1.75177,-0.90763 l 1.81017,-0.64499 -4.87313,-14.92864 c -2.68023,-8.21074 -4.84153,-14.96102 -4.80286,-15.00061 0.0386,-0.0396 5.19082,-0.96391 11.44927,-2.05406 8.59876,-1.49778 11.41948,-1.91132 11.54467,-1.69252 0.091,0.15926 1.20514,4.2728 2.47558,9.14122 2.25591,8.64476 2.32287,8.85133 2.86453,8.83709 0.30505,-0.008 4.19573,-0.7412 8.64596,-1.62925 7.44894,-1.48647 8.08715,-1.65163 8.03868,-2.08045 -0.0289,-0.2562 -1.35071,-8.89434 -2.93725,-19.19587 -1.58655,-10.30154 -2.88464,-18.79689 -2.88464,-18.87856 0,-0.0816 -0.49614,-0.11117 -1.10253,-0.0655 l -1.10252,0.083 -1.00922,-4.53126 c -1.0457,-4.69499 -1.04878,-4.91312 -0.0698,-4.92272 0.20541,-10e-4 0.61308,-0.10204 0.90593,-0.22231 l 0.53245,-0.21865 -2.70641,-12.53124 -2.70639,-12.53122 0.8029,-0.17449 c 0.94846,-0.20612 30.17183,-2.43417 30.25782,-2.30692 0.0324,0.0479 0.83466,4.88173 1.78288,10.7419 0.94823,5.86015 1.78932,10.71732 1.8691,10.79373 0.11278,0.10808 25.17755,-0.83627 25.20051,-0.94944 0.003,-0.0152 -0.30725,-4.74135 -0.68956,-10.50274 -0.38232,-5.76139 -0.6841,-10.49091 -0.67061,-10.51003 0.0134,-0.0191 2.63805,-0.15264 5.83237,-0.29669 4.23546,-0.19098 7.41637,-0.18965 11.74904,0.005 3.26767,0.14678 5.95283,0.28027 5.96706,0.29669 0.0144,0.0164 10.37198,-2.33982 10.03111,2.7302 -0.3409,5.07002 -3.41417,17.57866 -3.44656,18.30296 l 0.92315,0.24546 3.67341,0.32616 c 6.86059,0.60915 12.57797,0.43921 12.65778,0.35915 0.0797,-0.08 0.92087,-4.94026 1.86909,-10.80041 0.94822,-5.86015 1.74763,-10.69088 1.77646,-10.73495 0.0755,-0.11533 28.81673,2.08007 30.04432,2.29489 l 1.02629,0.17959 -2.70833,12.53114 c -2.6503,12.26265 -2.69838,12.53517 -2.24551,12.71937 0.25453,0.10351 0.78697,0.26439 1.18324,0.35747 0.39625,0.093 0.72046,0.2062 0.72046,0.25138 0,0.0451 -0.39884,1.8952 -0.88628,4.1112 -0.48745,2.216 -0.93463,4.25588 -0.99371,4.53307 -0.096,0.45021 -0.22611,0.49167 -1.21968,0.38856 -0.61176,-0.0635 -1.11225,-0.0453 -1.11225,0.0404 0,0.0857 -1.29811,8.58438 -2.88465,18.88591 -1.58654,10.30153 -2.90831,18.94345 -2.93724,19.20426 -0.0489,0.44043 0.56039,0.59557 8.55719,2.17881 5.77841,1.14402 8.63901,1.618 8.69854,1.44127 0.0487,-0.14484 1.12238,-4.2249 2.38574,-9.06681 1.26338,-4.84191 2.35975,-8.87119 2.43638,-8.95395 0.15998,-0.17279 22.98328,3.77873 22.97774,3.97826 -0.003,0.0722 -2.18626,6.81163 -4.85395,14.97634 l -4.85029,14.84492 1.85198,0.67505 1.85195,0.67505 -0.40237,1.12071 c -0.22136,0.61638 -1.13087,3.32948 -2.02117,6.0291 -0.89035,2.69963 -1.68532,4.99206 -1.76663,5.09429 -0.0813,0.10217 -0.78434,-0.0281 -1.56231,-0.28962 -0.77795,-0.26153 -1.43631,-0.45191 -1.463,-0.4231 -0.10804,0.11668 -0.99057,12.90198 -1.29256,18.72384 -1.75182,33.77249 -0.29559,66.74717 4.33464,98.1542 3.47999,23.60476 8.3808,45.08986 15.44941,67.72994 l 2.15426,6.89983 8.31299,8.52359 c 4.57215,4.68798 8.38401,8.74814 8.47079,9.02256 0.0868,0.27443 3.50954,19.78537 7.6061,43.35767 4.09652,23.57231 7.50028,43.08998 7.56383,43.3726 0.1054,0.46892 -0.23025,0.66058 -3.83753,2.1912 -16.06096,6.81479 -34.85772,11.83359 -61.19443,16.33912 -6.47818,1.10825 -33.36498,5.28705 -33.44027,5.19736 -0.0271,-0.0324 -1.2361,-9.10931 -2.68671,-20.17116 l -2.63743,-20.11249 -6.19789,0.0235 c -7.944,0.0299 -53.96971,0.0295 -62.83222,0 l -6.75631,-0.023 -2.64306,20.17233 c -1.70248,12.99397 -2.72976,20.16264 -2.88677,20.14512 -0.13403,-0.0146 -6.32884,-0.97021 -13.76619,-2.12274 z"
       id="path4733-3"
       inkscape:connector-curvature="0"
       sodipodi:nodetypes="csscscscsscsccscscscscscssscscscccscsccscsscsccscscscsscsscssscscsccsccccscccssscscscsscsccccsccc" />
    <path
       style="fill:none;stroke:#f4f4f4;stroke-width:3.5999999;stroke-linecap:butt;stroke-linejoin:miter;stroke-miterlimit:4;stroke-opacity:0.504717;stroke-dasharray:none"
       d="m 197.92815,166.61788 c 49.11283,-9.62816 94.18649,-7.18706 132.49999,-0.17857"
       id="path4735-8"
       inkscape:connector-curvature="0"
       sodipodi:nodetypes="cc" />
    <path
       style="fill:none;stroke:#000000;stroke-width:3.10000014;stroke-linecap:butt;stroke-linejoin:miter;stroke-miterlimit:4;stroke-opacity:0.16037735;stroke-dasharray:none"
       d="m 199.32015,174.25648 c 43.43654,-6.47515 86.87311,-4.99768 130.30967,-0.75762"
       id="path4737-2"
       inkscape:connector-curvature="0"
       sodipodi:nodetypes="cc" />
    <path
       style="fill:#000000;fill-opacity:0.14622641;stroke:none"
       d="m 240.24956,195.18931 1.96429,21.25 43.92857,-0.17857 0.7143,-23.21429 -1.78573,-1.78571 -0.5357,20.53572 -34.46429,0.5357 -0.53572,-11.60713 z"
       id="path4739-3"
       inkscape:connector-curvature="0" />
    <path
       style="fill:#000000;fill-opacity:0.25943394;stroke:none"
       d="m 185.24958,199.47503 -5.53572,0.71428 6.60715,23.03571 22.85714,-5.71429 -2.67857,-19.10714 -1.96429,-1.78572 3.03572,18.03572 -16.07143,2.85714 z"
       id="path4741-2"
       inkscape:connector-curvature="0" />
    <path
       style="fill:#000000;fill-opacity:0.17924529;stroke:none"
       d="m 321.67813,213.93931 -0.5357,3.57142 20.89286,4.28572 8.57142,-21.96429 -6.07142,-0.35713 -5.53572,18.21428 z"
       id="path4743-1"
       inkscape:connector-curvature="0" />
    <path
       style="fill:#ffffff;fill-opacity:0.45754718;stroke:none"
       d="m 285.18309,191.3028 1.89405,2.77792 37.12311,3.28299 -1.38896,-2.90418 z"
       id="path4745-0"
       inkscape:connector-curvature="0" />
    <path
       style="fill:#ffffff;fill-opacity:0.51886752;stroke:none"
       d="m 204.62345,197.36371 2.39911,2.02031 32.70367,-3.40927 9.849,4.67196 -9.21764,-7.70242 z"
       id="path4747-4"
       inkscape:connector-curvature="0" />
    <path
       style="fill:none;stroke:#f2f2f2;stroke-width:2.0999999;stroke-linecap:butt;stroke-linejoin:miter;stroke-miterlimit:4;stroke-opacity:0.5;stroke-dasharray:none"
       d="m 184.79921,200.01536 -21.33948,3.66181 9.34391,28.5368"
       id="path4749-0"
       inkscape:connector-curvature="0" />
    <path
       style="fill:none;stroke:#f3f3f3;stroke-width:3.10000014;stroke-linecap:butt;stroke-linejoin:miter;stroke-miterlimit:4;stroke-opacity:0.52358488;stroke-dasharray:none"
       d="m 169.01556,235.11817 c 67.2585,-17.9224 141.675,-17.26321 189.65614,0.50508"
       id="path4751-7"
       inkscape:connector-curvature="0"
       sodipodi:nodetypes="cc" />
    <path
       style="fill:none;stroke:#000000;stroke-width:4.0999999;stroke-linecap:butt;stroke-linejoin:miter;stroke-miterlimit:4;stroke-opacity:0.10377359;stroke-dasharray:none"
       d="m 176.33918,246.22985 c 64.067,-14.15908 121.78528,-11.8114 175.76653,0.25253"
       id="path4753-5"
       inkscape:connector-curvature="0"
       sodipodi:nodetypes="cc" />
    <path
       style="fill:#000000;fill-opacity:0.23584906;stroke:none"
       d="m 227.6044,526.0421 74.7513,-0.75762 c -3.47233,-82.28012 -67.32533,-79.9255 -74.7513,0.75762 z"
       id="path4755-9"
       inkscape:connector-curvature="0"
       sodipodi:nodetypes="ccc" />
    <path
       style="fill:#ffffff;fill-opacity:0.28301888;stroke:none"
       d="m 138.46387,455.90359 0,0 16.42857,-18.57143 c 71.14267,22.8319 143.85796,21.02669 217.85713,-0.89285 l 19.28571,19.28572 c -31.46483,11.11793 -64.32784,19.43954 -100.53572,21.07142 -14.19945,-31.53767 -50.6412,-26.68684 -63.57143,0.53572 -37.32114,-5.56397 -70.13193,-12.07749 -89.46426,-21.42858 z"
       id="path4757-0"
       inkscape:connector-curvature="0"
       sodipodi:nodetypes="cccccccc" />
    <rect
       style="opacity:0.52380952;fill:#000000;fill-opacity:0.45754718;stroke:none"
       id="rect4759-5"
       width="32.142857"
       height="33.92857"
       x="253.1067"
       y="346.79642" />
    <path
       style="fill:none;stroke:#f3f3f3;stroke-width:2.26197314;stroke-linecap:butt;stroke-linejoin:miter;stroke-miterlimit:4;stroke-opacity:0.56603771;stroke-dasharray:none"
       d="m 262.84919,453.81411 c -25.33987,9.83311 -43.26157,33.16105 -45.35442,74.64999 l -0.24919,33.72644"
       id="path4634-4-1"
       inkscape:connector-curvature="0"
       sodipodi:nodetypes="ccc" />
    <path
       style="fill:none;stroke:#131313;stroke-width:2.26197314;stroke-linecap:butt;stroke-linejoin:miter;stroke-miterlimit:4;stroke-opacity:0.19811324;stroke-dasharray:none"
       d="m 263.72139,454.25951 c 25.33987,9.83311 43.26156,33.16105 45.35439,74.64996 l 0.24921,33.72647"
       id="path4634-2-6-2"
       inkscape:connector-curvature="0"
       sodipodi:nodetypes="ccc" />
    <path
       style="fill:#000000;fill-opacity:0.45283018"
       d="m 208.69957,423.99327 c -0.28602,-0.28603 0.93895,-4.44853 2.72218,-9.25 5.14593,-13.8559 5.11048,-12.87105 0.49006,-13.60989 -3.03194,-0.48482 -4.02553,-1.1041 -4.02553,-2.50904 0,-1.61267 0.59537,-1.79825 4.39509,-1.36995 3.67029,0.41368 4.49163,0.18728 4.98057,-1.37285 0.98887,-3.15548 3.47672,-17.53282 4.13013,-23.86823 1.04355,-10.11819 1.47525,-11.5 3.5927,-11.5 1.4834,0 1.82955,0.52921 1.4717,2.25001 -0.25735,1.2375 -0.76148,5.39999 -1.1203,9.24999 -0.63232,6.78432 -2.90501,20.11405 -4.06132,23.82018 -0.39935,1.27995 0.0523,1.98235 1.52176,2.36662 1.19576,0.31271 2.08966,1.36026 2.08966,2.44888 0,1.48909 -0.50272,1.77625 -2.3138,1.32169 -2.12894,-0.53432 -2.5294,0.0559 -5.0119,7.3873 -3.98965,11.78231 -5.55229,15.15534 -7.02105,15.15534 -0.72596,0 -1.55394,-0.23403 -1.83995,-0.52005 z"
       id="path3989-0"
       inkscape:connector-curvature="0" />
    <path
       style="fill:#000000;fill-opacity:0.45283018"
       d="m 326.0853,423.98813 c 0.28602,-0.28603 -0.93896,-4.44854 -2.72218,-9.25001 -5.14594,-13.85589 -5.11049,-12.87105 -0.49006,-13.60989 3.03194,-0.48481 4.02553,-1.10411 4.02553,-2.50905 0,-1.61265 -0.59538,-1.79824 -4.3951,-1.36995 -3.67028,0.41369 -4.49163,0.1873 -4.98056,-1.37283 -0.98888,-3.15548 -3.47673,-17.53283 -4.13014,-23.86824 -1.04355,-10.11819 -1.47525,-11.49999 -3.59272,-11.49999 -1.4834,0 -1.82954,0.52919 -1.47168,2.24999 0.25733,1.2375 0.76148,5.4 1.1203,9.25 0.6323,6.78432 2.90501,20.11406 4.06132,23.82017 0.39935,1.27997 -0.0523,1.98236 -1.52176,2.36663 -1.19578,0.31272 -2.08966,1.36027 -2.08966,2.44889 0,1.48908 0.50272,1.77625 2.3138,1.32168 2.12895,-0.53432 2.5294,0.0559 5.01191,7.38731 3.98965,11.7823 5.55228,15.15532 7.02104,15.15532 0.72596,0 1.55394,-0.23402 1.83996,-0.52003 z"
       id="path3989-4-9"
       inkscape:connector-curvature="0" />
    <path
       transform="translate(477.87437,-15.937941)"
       sodipodi:type="arc"
       style="fill:#000000;fill-opacity:0.13679247;stroke:none"
       id="path3991-9-8"
       sodipodi:cx="-255.31606"
       sodipodi:cy="308.63736"
       sodipodi:rx="13.637059"
       sodipodi:ry="13.889598"
       d="m -241.679,308.63736 c 0,7.67101 -6.10552,13.8896 -13.63706,13.8896 -7.53154,0 -13.63705,-6.21859 -13.63705,-13.8896 0,-7.67101 6.10551,-13.8896 13.63705,-13.8896 7.53154,0 13.63706,6.21859 13.63706,13.8896 z" />
    <path
       sodipodi:type="arc"
       style="fill:#c3a83f;fill-opacity:1;stroke:none"
       id="path3993-8-9"
       sodipodi:cx="-250.26529"
       sodipodi:cy="309.33185"
       sodipodi:rx="11.364216"
       sodipodi:ry="13.195118"
       d="m -238.90107,309.33185 c 0,7.28746 -5.08794,13.19512 -11.36422,13.19512 -6.27628,0 -11.36422,-5.90766 -11.36422,-13.19512 0,-7.28746 5.08794,-13.19512 11.36422,-13.19512 6.27628,0 11.36422,5.90766 11.36422,13.19512 z"
       transform="translate(475.09647,-16.316751)" />
    <path
       transform="matrix(-1,0,0,1,53.600964,-15.943081)"
       sodipodi:type="arc"
       style="fill:#ffffff;fill-opacity:0.38679247;stroke:none"
       id="path3991-5-5-1"
       sodipodi:cx="-255.31606"
       sodipodi:cy="308.63736"
       sodipodi:rx="13.637059"
       sodipodi:ry="13.889598"
       d="m -241.679,308.63736 c 0,7.67101 -6.10552,13.8896 -13.63706,13.8896 -7.53154,0 -13.63705,-6.21859 -13.63705,-13.8896 0,-7.67101 6.10551,-13.8896 13.63705,-13.8896 7.53154,0 13.63706,6.21859 13.63706,13.8896 z" />
    <path
       sodipodi:type="arc"
       style="fill:#c3a940;fill-opacity:1;stroke:none"
       id="path3993-5-6-7"
       sodipodi:cx="-250.26529"
       sodipodi:cy="309.33185"
       sodipodi:rx="11.364216"
       sodipodi:ry="13.195118"
       d="m -238.90107,309.33185 c 0,7.28746 -5.08794,13.19512 -11.36422,13.19512 -6.27628,0 -11.36422,-5.90766 -11.36422,-13.19512 0,-7.28746 5.08794,-13.19512 11.36422,-13.19512 6.27628,0 11.36422,5.90766 11.36422,13.19512 z"
       transform="matrix(-1,0,0,1,56.378864,-16.321891)" />
    <path
       transform="matrix(-1,0,0,1,14.576364,-123.62661)"
       sodipodi:type="arc"
       style="fill:#ffffff;fill-opacity:0.38679247;stroke:none"
       id="path3991-5-6-3"
       sodipodi:cx="-255.31606"
       sodipodi:cy="308.63736"
       sodipodi:rx="13.637059"
       sodipodi:ry="13.889598"
       d="m -241.679,308.63736 c 0,7.67101 -6.10552,13.8896 -13.63706,13.8896 -7.53154,0 -13.63705,-6.21859 -13.63705,-13.8896 0,-7.67101 6.10551,-13.8896 13.63705,-13.8896 7.53154,0 13.63706,6.21859 13.63706,13.8896 z" />
    <path
       sodipodi:type="arc"
       style="fill:#c3a940;fill-opacity:1;stroke:none"
       id="path3993-5-07-3"
       sodipodi:cx="-250.26529"
       sodipodi:cy="309.33185"
       sodipodi:rx="11.364216"
       sodipodi:ry="13.195118"
       d="m -238.90107,309.33185 c 0,7.28746 -5.08794,13.19512 -11.36422,13.19512 -6.27628,0 -11.36422,-5.90766 -11.36422,-13.19512 0,-7.28746 5.08794,-13.19512 11.36422,-13.19512 6.27628,0 11.36422,5.90766 11.36422,13.19512 z"
       transform="matrix(-1,0,0,1,17.354264,-124.00543)" />
  </g>
</svg>
